# xmcd CD database file
#
# Track frame offsets:
#	150
#	21717
#	33947
#	51427
#	68028
#	78951
#	91461
#	112666
#	127312
#	140762
#	154830
#	166739
#	178632
#	191195
#	209475
#	223298
#	242977
#	253207
#	267157
#	289294
#	301242
#	324083
#
# Disc length: 4645 seconds
#
# Revision: 0
# Processed by: cddbd v1.5.1PL0 Copyright (c) Steve Scherf et al.
# Submitted via: CDex 1.50beta9
#
DISCID=53122316
DTITLE=Townes Van Zandt - For The Sake Of The Song (1-11) Our Mother The Mountain (12-22)
DYEAR=1900
DGENRE=Country
TTITLE0=Townes Van Zandt - For The Sake Of The Song
TTITLE1=Townes Van Zandt - Tecumseh Valley
TTITLE2=Townes Van Zandt - Many A Fine Lady
TTITLE3=Townes Van Zandt - Quicksilver Daydreams Of Maria
TTITLE4=Townes Van Zandt - Waitin' Around To Die
TTITLE5=Townes Van Zandt - I'll Be Here In The Morning
TTITLE6=Townes Van Zandt - Sad Cinderella
TTITLE7=Townes Van Zandt - The Velvet Voices
TTITLE8=Townes Van Zandt - All Your Young Servants
TTITLE9=Townes Van Zandt - Talkin' Karate Blues
TTITLE10=Townes Van Zandt - Sixteen Summers, Fifteen Falls
TTITLE11=Townes Van Zandt - Be Here To Love Me
TTITLE12=Townes Van Zandt - Kathleen
TTITLE13=Townes Van Zandt - She Came And She Touched Me
TTITLE14=Townes Van Zandt - Like A Summer Thursday
TTITLE15=Townes Van Zandt - Our Mother The Mountain
TTITLE16=Townes Van Zandt - Second Lover's Song
TTITLE17=Townes Van Zandt - St. John The Gambler
TTITLE18=Townes Van Zandt - Tecumseh Valley
TTITLE19=Townes Van Zandt - Snake Mountain Blues
TTITLE20=Townes Van Zandt - My Proud Mountains
TTITLE21=Townes Van Zandt - Why She's Acting This Way
EXTD=
EXTT0=
EXTT1=
EXTT2=
EXTT3=
EXTT4=
EXTT5=
EXTT6=
EXTT7=
EXTT8=
EXTT9=
EXTT10=
EXTT11=
EXTT12=
EXTT13=
EXTT14=
EXTT15=
EXTT16=
EXTT17=
EXTT18=
EXTT19=
EXTT20=
EXTT21=
PLAYORDER=
